<svg id="_x33_0" enable-background="new 0 0 64 64" height="512" viewBox="0 0 64 64" width="512" xmlns="http://www.w3.org/2000/svg"><g><g><g><path d="m38.41 10.59c.37.36.59.86.59 1.41 0 1.1-.9 2-2 2s-2-.9-2-2 .9-2 2-2c.55 0 1.05.22 1.41.59z" fill="#fcd770"/></g><g><path d="m36 50c1.1 0 2 .9 2 2s-.9 2-2 2c-.55 0-1.05-.22-1.41-.59-.37-.36-.59-.86-.59-1.41 0-1.1.9-2 2-2z" fill="#fcd770"/></g><g><path d="m58 4v20h-2-2v-20h2z" fill="#ff826e"/></g><g><path d="m48 24v14h-4v-14h2z" fill="#ff826e"/></g><g><path d="m29 36v12h-2-2v-12h2z" fill="#ff826e"/></g><g><path d="m38 30v6h-2-2v-6h2z" fill="#ff826e"/></g><g><path d="m19 44v6h-2-2v-6h2z" fill="#ff826e"/></g><g><path d="m9 38v20h-2-2v-20h2z" fill="#ff826e"/></g><g><circle cx="17" cy="17" fill="#69d6f4" r="15"/></g><g><circle cx="52" cy="52" fill="#fcd770" r="10"/></g></g><g><path d="m17 33c8.822 0 16-7.178 16-16s-7.178-16-16-16-16 7.178-16 16 7.178 16 16 16zm3.858-23c.583 1.701 1.006 3.701 1.105 6h-9.927c.1-2.295.526-4.297 1.113-6zm-6.901-2c1.068-2.27 2.309-3.808 3.045-4.598.74.788 1.983 2.322 3.051 4.598zm16.992 8h-6.986c-.089-2.259-.455-4.263-.987-6h6.13c1.039 1.789 1.689 3.825 1.843 6zm-17.807 8c-.583-1.701-1.006-3.701-1.105-6h9.927c-.1 2.295-.526 4.297-1.112 6zm6.901 2c-1.068 2.271-2.309 3.809-3.045 4.598-.739-.788-1.983-2.322-3.051-4.598zm3.921-8h6.986c-.155 2.175-.805 4.211-1.844 6h-6.13c.532-1.737.899-3.741.988-6zm-13.928-2h-6.985c.155-2.175.805-4.211 1.844-6h6.13c-.533 1.737-.9 3.741-.989 6zm0 2c.089 2.259.455 4.263.987 6h-6.13c-1.039-1.789-1.689-3.825-1.844-6zm-3.744 8h5.457c.859 2.062 1.886 3.648 2.76 4.765-3.275-.592-6.157-2.317-8.217-4.765zm13.199 4.765c.874-1.117 1.901-2.703 2.76-4.765h5.457c-2.06 2.448-4.942 4.173-8.217 4.765zm8.217-22.765h-5.457c-.859-2.062-1.886-3.648-2.76-4.765 3.275.592 6.157 2.317 8.217 4.765zm-13.199-4.765c-.874 1.117-1.901 2.703-2.76 4.765h-5.457c2.06-2.448 4.942-4.173 8.217-4.765z"/><path d="m53 47.184v-2.184h-2v2h-2v3c0 1.654 1.346 3 3 3 .552 0 1 .448 1 1v1h-1c-.552 0-1-.448-1-1v-1h-2v1c0 1.302.839 2.402 2 2.816v2.184h2v-2h2v-3c0-1.654-1.346-3-3-3-.552 0-1-.448-1-1v-1h1c.552 0 1 .448 1 1v1h2v-1c0-1.302-.839-2.402-2-2.816z"/><path d="m52 41c-6.065 0-11 4.935-11 11s4.935 11 11 11 11-4.935 11-11-4.935-11-11-11zm0 20c-4.963 0-9-4.037-9-9s4.037-9 9-9 9 4.037 9 9-4.037 9-9 9z"/><path d="m8 33h-2v4h-2v22h2v4h2v-4h2v-22h-2zm0 24h-2v-18h2z"/><path d="m55 29h2v-4h2v-22h-2v-2h-2v2h-2v22h2zm0-24h2v18h-2z"/><path d="m28 51v-2h2v-14h-2v-2h-2v2h-2v14h2v2zm-2-14h2v10h-2z"/><path d="m20 51v-8h-2v-4h-2v4h-2v8h2v4h2v-4zm-4-6h2v4h-2z"/><path d="m45 19v4h-2v16h6v-16h-2v-4zm2 18h-2v-12h2z"/><path d="m37 25h-2v4h-2v8h2v4h2v-4h2v-8h-2zm0 10h-2v-4h2z"/><path d="m36 49c-1.654 0-3 1.346-3 3 0 .462.113.894.301 1.285l-3.715 3.715h-9.586v2h10.414l4.301-4.301c.391.188.823.301 1.285.301 1.654 0 3-1.346 3-3s-1.346-3-3-3zm0 4c-.552 0-1-.448-1-1s.448-1 1-1 1 .448 1 1-.448 1-1 1z"/><path d="m20 61h10v2h-10z"/><path d="m43 1h8v2h-8z"/><path d="m43.414 7h7.586v-2h-8.414l-4.301 4.301c-.391-.188-.823-.301-1.285-.301-1.654 0-3 1.346-3 3s1.346 3 3 3 3-1.346 3-3c0-.462-.113-.894-.301-1.285zm-6.414 6c-.552 0-1-.449-1-1s.448-1 1-1 1 .449 1 1-.448 1-1 1z"/></g></g></svg>