<svg id="Capa_1" enable-background="new 0 0 512 512" height="512" viewBox="0 0 512 512" width="512" xmlns="http://www.w3.org/2000/svg"><g><g><path d="m456 136h-400c-11.05 0-20 8.95-20 20v306h440v-306c0-11.05-8.95-20-20-20z" fill="#eefaff"/><path d="m502 462c0 22.09-17.91 40-40 40h-412c-22.09 0-40-17.91-40-40z" fill="#6d92ac"/><path d="m396 276v146h-40v-106z" fill="#ff7d95"/><path d="m372.97 185.41c1.92 3.07 3.03 6.7 3.03 10.59 0 11.05-8.95 20-20 20h-200c-11.05 0-20-8.95-20-20 0-3.89 1.11-7.52 3.03-10.59.104-.173 99.896-165.828 100-166 3.53-5.65 9.81-9.41 16.97-9.41s13.44 3.76 16.97 9.41c.138.229 91.364 151.664 100 166z" fill="#ffda8f"/><path d="m356 316v106h-40v-126z" fill="#a0e5a5"/><path d="m316 296v126h-40v-146z" fill="#ff7d95"/><path d="m276 276v146h-40v-106z" fill="#a0e5a5"/><path d="m236 316v106h-40v-66z" fill="#ff7d95"/><path d="m196 356v66h-40v-86z" fill="#a0e5a5"/><path d="m156 336v86h-40v-66z" fill="#ff7d95"/><path d="m116 356v66h-40v-46z" fill="#a0e5a5"/></g><g><circle cx="256" cy="176" r="10"/><path d="m256 146c5.523 0 10-4.477 10-10v-66c0-5.523-4.477-10-10-10s-10 4.477-10 10v66c0 5.523 4.477 10 10 10z"/><path d="m436 226h-40c-5.523 0-10 4.477-10 10s4.477 10 10 10h15.858l-57.832 57.833-73.553-36.777c-3.775-1.886-8.468-1.202-11.543 1.873l-74.903 74.904-33.553-16.777c-2.776-1.387-6.142-1.4-8.944 0l-65.53 32.764v-33.82h30c5.523 0 10-4.477 10-10s-4.477-10-10-10h-30v-20h30c5.523 0 10-4.477 10-10s-4.477-10-10-10h-30v-20h30c5.523 0 10-4.477 10-10s-4.477-10-10-10h-30v-10c0-5.523-4.477-10-10-10s-10 4.477-10 10v206c0 5.523 4.477 10 10 10h360c5.523 0 10-4.477 10-10s-4.477-10-10-10h-30v-131.857l20-20v15.857c0 5.523 4.477 10 10 10s10-4.477 10-10v-40c0-.015-.002-.029-.002-.044-.024-5.566-4.58-9.956-9.998-9.956zm-330 186h-20v-29.82l20-10zm40 0h-20v-49.82l20-10zm40 0h-20v-59.82l20 10zm40 0h-20v-51.857l20-20zm40 0h-20v-91.858l20-20zm40 0h-20v-119.82l20 10zm40 0h-20v-99.82l20 10zm40 0h-20v-91.857l20-20z"/><circle cx="256" cy="502" r="10"/><path d="m502 452h-16v-296c0-16.542-13.458-30-30-30h-107.145s-67.375-111.842-67.404-111.889c-5.521-8.836-15.035-14.111-25.451-14.111s-19.93 5.275-25.451 14.111c-.028.046-67.408 111.889-67.408 111.889h-107.141c-16.542 0-30 13.458-30 30v296h-16c-5.523 0-10 4.477-10 10 0 27.57 22.43 50 50 50h161c5.523 0 10-4.477 10-10s-4.477-10-10-10h-161c-13.038 0-24.159-8.359-28.287-20.01h468.573c-4.127 11.651-15.248 20.01-28.286 20.01h-161c-5.523 0-10 4.477-10 10s4.477 10 10 10h161c27.57 0 50-22.43 50-50 0-5.523-4.477-10-10-10zm-254.455-427.347c1.848-2.915 5.003-4.653 8.455-4.653 3.451 0 6.606 1.738 8.454 4.652 4.981 8.299 100.009 166.014 100.038 166.061.987 1.577 1.508 3.406 1.508 5.287 0 5.514-4.486 10-10 10h-200c-5.514 0-10-4.486-10-10 0-1.881.521-3.71 1.508-5.287.03-.048 98.777-163.968 100.037-166.06zm218.455 427.347h-420v-296c0-5.514 4.486-10 10-10h95.094l-20.591 34.185c-2.946 4.743-4.503 10.21-4.503 15.815 0 16.542 13.458 30 30 30h200c16.542 0 30-13.458 30-30 0-5.605-1.556-11.071-4.502-15.813l-20.595-34.187h95.097c5.514 0 10 4.486 10 10z"/></g></g></svg>